<svg xmlns="http://www.w3.org/2000/svg" width="256" height="256" viewBox="0 0 100 100"><rect width="100" height="100" rx="0" fill="#4a90e2"></rect><path fill="#fff" d="M50.45 56.17L37.05 56.17L37.05 78.44L29.55 78.44L29.55 21.56L50.53 21.56Q59.86 21.56 65.16 26.33Q70.45 31.09 70.45 38.95L70.45 38.95Q70.45 47.23 65.27 51.70Q60.10 56.17 50.45 56.17L50.45 56.17ZM37.05 27.73L37.05 50.04L50.53 50.04Q56.54 50.04 59.75 47.21Q62.95 44.38 62.95 39.02L62.95 39.02Q62.95 33.95 59.75 30.90Q56.54 27.85 50.96 27.73L50.96 27.73L37.05 27.73Z"></path></svg>